<svg width="65" height="64" viewBox="0 0 31 31" xmlns="http://www.w3.org/2000/svg" aria-hidden="true"><g fill="none" fill-rule="evenodd"><path d="M12.902 21.79l-4.965-4.926c-.355-.35-.357-.925-.006-1.28.353-.355.926-.357 1.282-.005l3.702 3.672 8.394-8.182c.36-.35.93-.342 1.28.016.348.358.34.932-.017 1.28l-9.668 9.425" fill="#80bb35"></path><path d="M29.826 15.663c0 7.823-6.34 14.163-14.163 14.163-7.822 0-14.163-6.34-14.163-14.163C1.5 7.843 7.84 1.5 15.663 1.5c3.804 0 7.258 1.5 9.802 3.94 2.687 2.578 4.36 6.205 4.36 10.223z" stroke="#80bb35"></path></g></svg>